<?xml version="1.0" encoding="UTF-8" standalone="no"?>
<svg
   xmlns:dc="http://purl.org/dc/elements/1.1/"
   xmlns:cc="http://creativecommons.org/ns#"
   xmlns:rdf="http://www.w3.org/1999/02/22-rdf-syntax-ns#"
   xmlns:svg="http://www.w3.org/2000/svg"
   xmlns="http://www.w3.org/2000/svg"
   xmlns:sodipodi="http://sodipodi.sourceforge.net/DTD/sodipodi-0.dtd"
   xmlns:inkscape="http://www.inkscape.org/namespaces/inkscape"
   version="1.1"
   id="svg94"
   sodipodi:docname="logo.svg"
   width="642.3772"
   height="122.1"
   inkscape:version="1.0.2 (e86c870879, 2021-01-15, custom)"
   inkscape:export-filename="/home/fabian/dhbw/vorlagen/logo_vectorized.png"
   inkscape:export-xdpi="96"
   inkscape:export-ydpi="96">
  <metadata
     id="metadata98">
    <rdf:RDF>
      <cc:Work
         rdf:about="">
        <dc:format>image/svg+xml</dc:format>
        <dc:type
           rdf:resource="http://purl.org/dc/dcmitype/StillImage" />
        <dc:title />
      </cc:Work>
    </rdf:RDF>
  </metadata>
  <sodipodi:namedview
     pagecolor="#ffffff"
     bordercolor="#666666"
     borderopacity="1"
     objecttolerance="10"
     gridtolerance="10"
     guidetolerance="10"
     inkscape:pageopacity="0"
     inkscape:pageshadow="2"
     inkscape:window-width="1920"
     inkscape:window-height="1080"
     id="namedview96"
     showgrid="false"
     fit-margin-top="0"
     fit-margin-left="0"
     fit-margin-right="0"
     fit-margin-bottom="0"
     inkscape:zoom="4.0000001"
     inkscape:cx="562.56377"
     inkscape:cy="70.622243"
     inkscape:window-x="0"
     inkscape:window-y="0"
     inkscape:window-maximized="1"
     inkscape:current-layer="svg94"
     inkscape:document-rotation="0" />
  <defs
     id="defs4">
    <style
       type="text/css"
       id="style2"><![CDATA[
       path {
         stroke-width: 0.1;
       }
    ]]></style>
  </defs>
  <rect
     style="fill:#e2001a;fill-opacity:1;stroke-width:1.0003"
     id="rect188"
     width="1.8559119"
     height="2.7722075"
     x="64.145447"
     y="30.038549" />
  <path
     style="fill:#ffffff;stroke:#ffffff"
     d="m 610.54963,27.543538 c -0.004,21.089188 -0.0178,42.178512 0.007,63.267677 2.08256,-0.0034 4.1651,-0.0061 6.24766,-0.0088 0.0371,-9.92532 -0.048,-19.85927 10e-4,-29.781795 -0.3163,-4.383239 3.6315,-8.260535 7.3038,-9.982185 3.1844,-1.44011 6.71197,-0.693172 8.9975,1.951546 3.0235,3.514134 2.9345,7.678169 2.97905,12.059879 -0.06,8.586935 -0.0341,17.173565 -0.0312,25.760645 2.0806,-0.0025 4.16114,-0.0046 6.2417,-0.0063 0.006,-9.9212 0.004,-19.838785 0.0305,-29.759924 0.002,-4.247506 -0.808,-8.300306 -3.6887,-11.561348 -3.53613,-4.191158 -9.7344,-5.608604 -14.7928,-3.614608 -2.971,1.224986 -4.99126,3.345752 -7.1571,5.622985 0.2457,-7.972675 0.0615,-15.95792 0.1207,-23.934093 -2.0866,-0.006 -4.1731,-0.01018 -6.25967,-0.01363 z"
     id="path8" />
  <path
     style="fill:#ffffff;stroke:#ffffff"
     d="m 432.44066,30.448676 c -3.01371,1.716532 -2.72358,6.606081 0.67672,7.693964 3.28678,1.044964 6.33405,-1.516487 5.66846,-4.924248 -0.46097,-2.984718 -3.89099,-3.925527 -6.34518,-2.769716 z"
     id="path10" />
  <path
     style="fill:#ffffff;stroke:#ffffff"
     d="m 448.1758,30.179896 c -3.02042,1.291804 -3.502,5.674879 -0.75425,7.517494 2.86455,1.72549 6.92059,-0.07721 6.67432,-3.64327 0.008,-3.350273 -2.97852,-4.608986 -5.92007,-3.874224 z"
     id="path12" />
  <path
     style="fill:#ffffff;stroke:#ffffff"
     d="m 207.44845,90.593976 c 3.13703,0.130124 6.75995,0.673054 9.77615,-0.319486 0.714,-1.96744 0.59019,-4.14685 0.62229,-6.22446 -0.0647,-6.58337 -0.0391,-13.166496 -0.0363,-19.750045 6.74538,-4.85e-4 13.49076,0.0017 20.23612,-0.0022 0.19798,8.74605 -0.43709,17.597444 0.40097,26.30545 2.95924,0.12131 6.2448,0.57793 9.13252,-0.136595 1.51618,-0.94548 1.06647,-2.851341 1.24439,-4.38092 -0.029,-16.70237 -0.0241,-33.370052 -0.002,-50.071808 -0.21713,-1.901607 0.39377,-3.864982 -1.96228,-4.487499 -2.57559,-0.357313 -6.24658,-0.815395 -8.4794,0.809917 -0.78649,7.557235 -0.11065,15.345391 -0.33316,22.956582 -6.74599,10e-4 -13.49199,0.0031 -20.23798,-0.0018 -0.14139,-7.321955 0.26384,-14.706611 -0.16452,-22.00901 -0.12459,-2.08053 -3.07883,-1.987972 -4.56939,-2.063688 -1.62197,0.06179 -4.5102,-0.242187 -5.60491,1.236917 -0.47959,1.433096 -0.40742,3.093064 -0.4566,4.590622 0.0684,12.667317 0.0228,25.336308 0.036,38.004334 0.0275,5.249355 -0.22354,10.31518 0.39805,15.543766 z"
     id="path16" />
  <path
     style="fill:#ffffff;stroke:#ffffff"
     d="m 302.3187,31.467866 c 2.72315,15.849244 6.3196,31.565204 9.36198,47.360174 0.89215,3.849005 1.25082,8.06753 2.84302,11.68903 2.2046,0.50406 4.71035,0.509706 6.90606,-0.04709 0.60352,-1.30984 0.9635,-2.7754 1.28302,-4.17908 2.89722,-15.24311 5.85797,-30.480494 8.86422,-45.702898 3.01508,14.718395 5.93263,29.474144 8.74647,44.232353 0.46698,1.853995 0.63421,4.355775 1.96167,5.801369 2.18692,0.284306 4.45046,0.192496 6.65362,0.186661 3.13924,-13.166315 5.46527,-26.541795 8.27481,-39.784965 1.2623,-6.55094 2.89679,-13.096783 3.67347,-19.722949 -1.75037,0.04953 -3.63554,-0.08676 -5.3386,0.355522 -1.55614,0.633494 -1.50116,2.769831 -1.92929,4.183974 -2.67248,15.303749 -5.37055,30.610393 -8.13702,45.897723 -2.57323,-13.063575 -5.12869,-26.131305 -7.67371,-39.200374 -0.68612,-3.318996 -1.06024,-6.876491 -2.28662,-10.04295 -1.113,-1.604774 -4.27612,-1.0359 -6.01834,-1.327713 -0.59776,0.577765 -1.19659,1.15445 -1.79646,1.73005 -3.145,16.263423 -6.28383,32.528411 -9.47054,48.783707 -2.99006,-16.36713 -5.96516,-32.743176 -8.77946,-49.14108 -0.66094,-0.380665 -1.32482,-0.75599 -1.9917,-1.12598 -1.727,-0.06933 -3.42207,-0.0028 -5.1466,0.05452 z"
     id="path20" />
  <path
     style="fill:#ffffff;stroke:#ffffff"
     d="m 389.7916,31.568177 c 0.0171,19.745747 -0.006,39.491533 0.0119,59.237283 9.49756,0.0012 18.99512,9.2e-4 28.49271,1.9e-4 0.003,-1.91749 0.005,-3.834996 0.008,-5.7525 -7.24834,-0.0069 -14.4967,-8.1e-4 -21.74504,-0.0041 -0.0101,-17.83737 0.003,-35.67476 -0.007,-53.51213 -2.25351,0.01197 -4.50705,0.01646 -6.76057,0.03124 z"
     id="path22" />
  <path
     style="fill:#ffffff;stroke:#ffffff"
     d="m 477.45982,51.506314 c 0.0502,-1.817054 0.0903,-3.634324 0.12561,-5.451724 -2.01245,-0.0025 -4.02487,-0.0041 -6.03733,-0.0054 -6.6e-4,14.92057 -0.0169,29.84127 0.009,44.76181 2.08256,-0.0033 4.16513,-0.0059 6.24768,-0.0085 0.0389,-9.926265 -0.0513,-19.862 0.003,-29.78526 -0.23777,-3.807013 2.96023,-7.37224 6.01587,-9.22283 2.09196,-1.36105 4.46446,-0.26304 6.7041,0.10453 0.62781,-1.991596 1.25736,-3.982624 1.87896,-5.97618 -2.45074,-0.42082 -5.5488,-1.383134 -7.9291,-0.428315 -3.02097,1.108048 -4.9522,3.689808 -7.01758,6.011879 z"
     id="path26" />
  <path
     style="fill:#ffffff;stroke:#ffffff"
     d="m 507.7289,51.245145 c 0.0391,-1.731133 0.0743,-3.462357 0.10565,-5.193669 -2.09825,0.0016 -4.19645,0.0038 -6.29475,0.0072 0.0117,14.912769 -2.4e-4,29.825558 0.007,44.738332 2.166,0.0055 4.332,0.01076 6.4981,0.0164 0.0345,-9.932394 -0.0238,-19.87022 -0.009,-29.79912 -0.34066,-3.88648 2.83224,-7.16933 5.80714,-9.18034 2.1191,-1.501796 4.558,-0.306247 6.86394,0.05545 0.60476,-1.981293 1.20666,-3.963425 1.79926,-5.948383 -2.6163,-0.485444 -5.4248,-1.436726 -8.01905,-0.399838 -2.83155,1.044067 -4.7464,3.587391 -6.75805,5.703999 z"
     id="path28" />
  <path
     style="fill:#ffffff;stroke:#ffffff"
     d="m 600.4558,88.835 c -0.65574,-1.8625 -1.3167,-3.72315 -1.9794,-5.58321 -3.44087,1.608284 -7.5564,3.8079 -11.46925,3.17082 -4.03075,-0.77181 -6.35605,-3.90606 -7.83972,-7.489515 -1.97993,-5.145535 -2.35973,-10.99176 -1.47357,-16.40614 0.87554,-4.504478 3.53668,-10.055655 8.09747,-11.780665 3.62607,-1.315846 8.30561,1.148578 11.65381,2.483886 0.64551,-1.822806 1.29199,-3.645252 1.93616,-5.46854 -5.09613,-2.194646 -10.1422,-3.72126 -15.68884,-2.08675 -5.09272,1.730232 -8.80262,6.327117 -10.90546,11.117069 -3.1164,6.89814 -2.6993,15.080205 -0.61646,22.207425 1.57456,5.31537 5.23296,10.408835 10.69296,12.15658 6.2137,1.71863 11.8698,0.10156 17.5923,-2.32096 z"
     id="path32" />
  <path
     style="fill:#e2001a;stroke:#e2001a"
     d="m 93.75545,0.05 c 0.23989,0 0.23989,0 0.479784,0 0.141366,10.40454 0.02894,20.812986 0.06567,31.218525 -9.41667,0.156174 -18.9077,-0.366098 -28.298454,0.333929 -0.338896,0.03187 -0.338896,0.03187 -0.677796,0.06373 C 64.95658,31.11903 64.58979,30.571023 64.22427,30.022162 66.764584,25.59962 70.46616,22.558308 73.98098,18.981047 78.972646,13.970707 84.00585,9.003348 88.94977,3.9457555 90.41583,2.4377525 91.960614,1.1628548 93.75545,0.05 Z"
     id="path34" />
  <path
     style="fill:#5c6971;stroke:#5c6971"
     d="m 610.54963,27.543538 c 2.08657,0.0035 4.17307,0.0076 6.25967,0.01363 -0.0592,7.976173 0.125,15.961418 -0.1207,23.934093 2.16584,-2.277233 4.1861,-4.397999 7.1571,-5.622985 5.0584,-1.993996 11.25667,-0.57655 14.7928,3.614608 2.8807,3.261042 3.6907,7.313842 3.6887,11.561348 -0.0265,9.921139 -0.0248,19.838724 -0.0305,29.759924 -2.08056,0.0018 -4.1611,0.0038 -6.2417,0.0063 -0.003,-8.58708 -0.0287,-17.17371 0.0312,-25.760645 -0.0445,-4.38171 0.0444,-8.545745 -2.97905,-12.059879 -2.28553,-2.644718 -5.8131,-3.391656 -8.9975,-1.951546 -3.6723,1.72165 -7.6201,5.598946 -7.3038,9.982185 -0.0494,9.922525 0.0357,19.856475 -10e-4,29.781795 -2.08256,0.0027 -4.1651,0.0054 -6.24766,0.0088 -0.025,-21.089165 -0.011,-42.178489 -0.007,-63.267677 z"
     id="path36" />
  <path
     style="fill:#5c6971;stroke:#5c6971"
     d="m 432.44066,30.448676 c 2.45419,-1.155811 5.88421,-0.215002 6.34518,2.769716 0.66559,3.407761 -2.38168,5.969212 -5.66846,4.924248 -3.4003,-1.087883 -3.69043,-5.977432 -0.67672,-7.693964 z"
     id="path38" />
  <path
     style="fill:#5c6971;stroke:#5c6971"
     d="m 448.1758,30.179896 c 2.94155,-0.734762 5.92837,0.523951 5.92007,3.874224 0.24627,3.56606 -3.80977,5.36876 -6.67432,3.64327 -2.74775,-1.842615 -2.26617,-6.22569 0.75425,-7.517494 z"
     id="path40" />
  <path
     style="fill:#e2001a;stroke:#e2001a"
     d="M 1.7279646,31.489241 C 6.47249,31.07787 11.288568,31.362157 16.049677,31.29489 c 13.646058,0.05893 27.346213,-0.112417 40.981799,0.06221 2.060714,0.102635 2.229027,1.071912 2.622524,2.836332 -8.303867,6.735545 -15.327377,15.016734 -23.108253,22.349917 -2.855751,3.100067 -7.162201,5.726203 -6.832302,10.483523 -0.08403,7.904386 0.03274,15.82134 0.04873,23.7282 C 22.19273,90.87563 14.622136,90.74716 7.051962,90.84626 4.5699103,90.81786 2.296674,91.06185 0.05,89.785855 c 0,-28.712905 0,-28.712905 0,-57.425808 0.8389823,-0.435402 0.8389823,-0.435402 1.6779646,-0.870806 z"
     id="path42" />
  <path
     style="fill:#7c868d;stroke:#7c868d"
     d="m 94.3009,31.268525 c 7.25072,0.03143 14.49795,0.0658 21.74833,-0.02301 2.38047,0.01507 4.94626,-0.06233 7.26733,0.515487 0.79424,1.700716 0.7237,3.445296 0.78457,5.285143 -0.10178,16.337139 -0.0436,32.686743 -0.024,49.024023 -0.22609,1.74331 0.36962,4.468096 -2.11204,4.619105 -6.94711,0.36634 -13.95264,-0.01631 -20.91486,0.115305 -12.1203,-0.18336 -24.305035,0.38988 -36.40317,-0.319 -0.0316,-1.01702 -0.0623,-2.034075 -0.09213,-3.05116 7.15449,-6.080045 13.44486,-13.162244 20.19734,-19.683706 2.62722,-2.697354 5.54504,-5.195202 7.92671,-8.112164 1.87632,-2.130264 1.472534,-4.9375 1.5921,-7.589282 C 94.18979,45.16728 94.210324,38.286107 94.22097,31.403825 84.81842,31.48395 75.397626,31.22373 66.002446,31.602454 75.3932,30.902427 84.88423,31.424699 94.3009,31.268525 Z"
     id="path44" />
  <path
     id="path46"
     style="fill:#e2001a;stroke:#e2001a"
     d="M 165.26953 31.257812 C 162.84928 31.253581 160.4286 31.282271 158.01367 31.275391 C 156.36957 31.430723 154.7124 31.07758 153.55273 32.486328 C 153.2639 33.966583 153.28051 35.538602 153.25781 37.042969 C 153.33191 52.711382 153.28216 68.382247 153.28516 84.050781 C 153.30096 86.230506 153.4088 88.400516 153.5918 90.572266 C 159.40781 90.945536 165.26028 90.814294 171.08594 90.808594 C 178.57246 90.848118 185.8851 87.462626 190.5 81.535156 C 195.93975 74.643006 197.76947 65.681953 197.23047 57.0625 C 196.79201 49.836761 193.87117 42.575681 188.35938 37.738281 C 183.97555 33.783061 178.36076 31.827794 172.52148 31.439453 C 170.11029 31.300169 167.68979 31.262044 165.26953 31.257812 z M 166.67578 39.777344 C 169.33711 39.764406 172.08094 39.786956 174.57812 40.431641 C 179.74517 41.920835 183.34062 46.209461 184.98047 51.201172 C 186.94557 57.440231 186.6593 64.417214 184.57422 70.589844 C 182.99312 75.313524 179.36424 79.823684 174.60742 81.583984 C 171.34152 82.654689 167.46381 82.245877 164.05273 82.310547 C 164.04873 68.134267 164.04582 53.957522 164.05273 39.78125 C 164.90932 39.790823 165.78867 39.781656 166.67578 39.777344 z " />
  <path
     style="fill:none;stroke:#e2001a"
     d="m 164.05366,39.78121 c -0.007,14.176272 -0.005,28.35258 -9.1e-4,42.52886 3.41108,-0.06467 7.28811,0.344735 10.55401,-0.72597 4.75682,-1.7603 8.38599,-6.27028 9.96709,-10.99396 2.08508,-6.17263 2.37126,-13.149187 0.40616,-19.388246 -1.63985,-4.991711 -5.23531,-9.28032 -10.40236,-10.769514 -3.32958,-0.85958 -7.09764,-0.61288 -10.52399,-0.65117 z"
     id="path48" />
  <path
     style="fill:#e2001a;stroke:#e2001a"
     d="m 213.0759,31.218337 c 1.49056,0.07572 4.4448,-0.01684 4.56939,2.063688 0.42836,7.302399 0.0231,14.687055 0.16452,22.00901 6.74599,0.005 13.49199,0.0029 20.23798,0.0018 0.22251,-7.611191 -0.45333,-15.399347 0.33316,-22.956582 2.23282,-1.625312 5.90381,-1.16723 8.4794,-0.809917 2.35605,0.622517 1.74515,2.585892 1.96228,4.487499 -0.0222,16.701756 -0.027,33.369438 0.002,50.071808 -0.17792,1.529579 0.27179,3.43544 -1.24439,4.38092 -2.88772,0.714525 -6.17328,0.257905 -9.13252,0.136595 -0.83806,-8.708006 -0.20299,-17.5594 -0.40097,-26.30545 -6.74536,0.0039 -13.49074,0.0018 -20.23612,0.0022 -0.003,6.583549 -0.0284,13.166675 0.0363,19.750045 -0.0321,2.07761 0.0917,4.25702 -0.62229,6.22446 -3.0162,0.99254 -6.63912,0.44961 -9.77615,0.319486 -0.62159,-5.228586 -0.37057,-10.294411 -0.39805,-15.543766 -0.0132,-12.668026 0.0324,-25.337017 -0.036,-38.004334 0.0492,-1.497558 -0.023,-3.157526 0.4566,-4.590622 1.09471,-1.479104 3.98294,-1.175132 5.60491,-1.236917 z"
     id="path50" />
  <path
     id="path52"
     style="fill:#5c6971;stroke:#5c6971"
     d="M 268.08594 31.246094 C 265.74669 31.275275 263.41476 31.396791 261.16211 31.777344 C 260.88786 42.858709 261.13033 53.964057 261.04883 65.050781 C 261.14626 73.598241 260.81464 82.175149 261.27539 90.710938 C 266.87756 90.811487 272.4945 90.915598 278.0957 90.767578 C 284.05151 90.540748 290.54959 88.099031 294.05078 83.050781 C 297.99201 77.345821 297.9338 69.176326 293.07031 64.009766 C 290.89108 61.636826 288.20007 60.600521 285.29883 59.400391 C 288.55575 57.618271 291.51932 55.733258 293.45117 52.445312 C 297.04065 46.919702 295.2481 38.958288 290.05273 35.080078 C 285.80743 31.797686 280.23796 31.304907 275.05664 31.273438 C 272.77245 31.280361 270.42518 31.216912 268.08594 31.246094 z M 274.38867 36.748047 C 278.26907 36.719859 282.24956 37.017173 284.94141 39.179688 C 289.75477 42.827936 289.41062 50.158709 284.98438 53.980469 C 280.40843 58.414439 273.56554 56.791854 267.80859 57.035156 C 267.80659 50.296749 267.80155 43.556764 267.81055 36.818359 C 269.76697 36.897802 272.06043 36.764959 274.38867 36.748047 z M 274.80859 62.482422 C 278.93615 62.431418 283.15926 62.731879 285.96484 65.136719 C 291.79401 69.568159 290.79422 79.000349 284.99023 82.980469 C 280.41517 86.439779 273.26407 85.064307 267.81055 85.275391 C 267.80155 77.708767 267.80455 70.140847 267.81055 62.574219 C 269.89053 62.669995 272.33279 62.513015 274.80859 62.482422 z " />
  <path
     style="fill:none;stroke:#5c6971"
     d="m 267.81108,36.81927 c -0.009,6.738405 -0.006,13.47679 -0.003,20.215197 5.75695,-0.243302 12.59995,1.379113 17.1759,-3.054857 4.42625,-3.82176 4.77027,-11.15098 -0.0431,-14.79923 -4.30696,-3.460023 -11.91236,-2.149263 -17.12948,-2.36111 z"
     id="path54" />
  <path
     style="fill:none;stroke:#5c6971"
     d="m 267.80952,62.574696 c -0.005,7.566628 -0.007,15.133274 10e-4,22.699898 5.45352,-0.211084 12.6045,1.164986 17.17956,-2.294324 5.80399,-3.98012 6.80384,-13.41216 0.97467,-17.8436 -4.48893,-3.847744 -12.60791,-2.306095 -18.15561,-2.561974 z"
     id="path56" />
  <path
     style="fill:#5c6971;stroke:#5c6971"
     d="m 307.4653,31.41335 c 0.66688,0.36999 1.33076,0.745315 1.9917,1.12598 2.8143,16.397904 5.7894,32.77395 8.77946,49.14108 3.18671,-16.255296 6.32554,-32.520284 9.47054,-48.783707 0.59987,-0.5756 1.1987,-1.152285 1.79646,-1.73005 1.74222,0.291813 4.90534,-0.277061 6.01834,1.327713 1.22638,3.166459 1.6005,6.723954 2.28662,10.04295 2.54502,13.069069 5.10048,26.136799 7.67371,39.200374 2.76647,-15.28733 5.46454,-30.593974 8.13702,-45.897723 0.42813,-1.414143 0.37315,-3.55048 1.92929,-4.183974 1.70306,-0.442285 3.58823,-0.305996 5.3386,-0.355522 -0.77668,6.626166 -2.41117,13.172009 -3.67347,19.722949 -2.80954,13.24317 -5.13557,26.61865 -8.27481,39.784965 -2.20316,0.0058 -4.4667,0.09764 -6.65362,-0.186661 -1.32746,-1.445594 -1.49469,-3.947374 -1.96167,-5.801369 -2.81384,-14.758209 -5.73139,-29.513958 -8.74647,-44.232353 -3.00625,15.222404 -5.967,30.459788 -8.86422,45.702898 -0.31952,1.40368 -0.6795,2.86924 -1.28302,4.17908 -2.19571,0.556796 -4.70146,0.55115 -6.90606,0.04709 -1.5922,-3.6215 -1.95087,-7.840025 -2.84302,-11.68903 -3.04238,-15.79497 -6.63883,-31.51093 -9.36198,-47.360174 1.72453,-0.05731 3.4196,-0.123844 5.1466,-0.05452 z"
     id="path58" />
  <path
     style="fill:#5c6971;stroke:#5c6971"
     d="m 396.55217,31.53694 c 0.01,17.83737 -0.003,35.67476 0.007,53.51213 7.24834,0.0033 14.4967,-0.0028 21.74504,0.0041 -0.002,1.917504 -0.005,3.83501 -0.008,5.7525 -9.49759,7.3e-4 -18.99515,10e-4 -28.49271,-1.9e-4 -0.0181,-19.74575 0.005,-39.491536 -0.0119,-59.237283 2.25352,-0.01478 4.50706,-0.01926 6.76057,-0.03124 z"
     id="path60" />
  <path
     style="fill:#8c0012;stroke:#8c0012"
     d="m 65.32465,31.666188 c 0.3389,-0.03187 0.3389,-0.03187 0.677796,-0.06373 9.39518,-0.378724 18.815974,-0.118504 28.218524,-0.198629 -0.01065,6.882282 -0.03118,13.763455 0.05009,20.645443 -0.119566,2.651782 0.28422,5.459018 -1.5921,7.589282 -2.38167,2.916962 -5.29949,5.41481 -7.92671,8.112164 C 77.99977,74.272176 71.7094,81.354375 64.55491,87.43442 64.19637,69.235486 64.83772,50.976697 64.22313,32.79193 c 0.36444,-0.377954 0.73162,-0.7532 1.10152,-1.125742 z"
     id="path62" />
  <path
     style="fill:#8c0012;stroke:#8c0012"
     d="m 59.654,34.19343 c -0.08545,18.72523 0.08413,37.46654 -0.09166,56.188075 -9.936184,0.51522 -19.863522,-0.0099 -29.800165,0.373565 -0.01599,-7.90686 -0.13276,-15.823814 -0.04873,-23.7282 -0.329899,-4.75732 3.976551,-7.383456 6.832302,-10.483523 C 44.326623,49.210164 51.350133,40.928975 59.654,34.19343 Z"
     id="path64" />
  <path
     id="path70"
     style="fill:#5c6971;stroke:#5c6971"
     d="M 442.16602 44.974609 C 440.57549 44.981136 438.99441 45.197821 437.51172 45.597656 C 431.87499 47.444262 427.93086 52.648552 426.0293 58.078125 C 423.5201 64.906898 424.05446 72.157829 426.16602 79.005859 C 427.59028 83.371303 430.20006 87.497036 434.20312 89.90625 C 437.56905 91.97747 442.0477 92.221241 445.83789 91.488281 C 451.08707 90.323131 454.9949 85.790245 457.02148 81.015625 C 459.70861 74.525101 460.64822 66.942333 458.86328 60.091797 C 457.74069 55.499239 455.54681 51.276229 451.83203 48.257812 C 449.20678 45.962002 445.66518 44.960252 442.16602 44.974609 z M 442.05469 50.306641 C 444.56562 50.303108 446.90301 51.412447 448.60742 53.470703 C 453.3067 59.011401 453.70493 66.999669 452.54688 73.855469 C 451.85285 77.652399 450.34416 81.778969 447.4707 84.474609 C 444.53966 87.242859 439.55584 87.210918 436.60742 84.486328 C 433.87625 81.995723 432.43979 78.116753 431.7168 74.574219 C 430.62519 68.833859 430.6507 62.558729 433.12305 57.160156 C 434.40021 54.467663 436.54254 51.610753 439.50195 50.6875 C 440.36038 50.432914 441.21771 50.307818 442.05469 50.306641 z " />
  <path
     style="fill:none;stroke:#5c6971"
     d="m 439.50224,50.68771 c -2.95941,0.923253 -5.10178,3.780774 -6.37894,6.473267 -2.47235,5.398573 -2.49737,11.672993 -1.40576,17.413353 0.72299,3.542534 2.15894,7.421005 4.89011,9.91161 2.94842,2.72459 7.93285,2.75657 10.86389,-0.01168 2.87346,-2.69564 4.3815,-6.8225 5.07553,-10.61943 1.15805,-6.8558 0.75916,-14.84286 -3.94012,-20.383558 -2.27255,-2.744342 -5.67102,-3.801906 -9.10471,-2.783562 z"
     id="path72" />
  <path
     style="fill:#5c6971;stroke:#5c6971"
     d="m 484.4774,45.494435 c 2.3803,-0.954819 5.47836,0.0075 7.9291,0.428315 -0.6216,1.993556 -1.25115,3.984584 -1.87896,5.97618 -2.23964,-0.36757 -4.61214,-1.46558 -6.7041,-0.10453 -3.05564,1.85059 -6.25364,5.415817 -6.01587,9.22283 -0.0543,9.92326 0.0359,19.858995 -0.003,29.78526 -2.08255,0.0026 -4.16512,0.0053 -6.24768,0.0085 -0.0256,-14.92054 -0.009,-29.84124 -0.009,-44.76181 2.01246,0.0012 4.02488,0.0029 6.03733,0.0054 -0.0353,1.8174 -0.0754,3.63467 -0.12561,5.451724 2.06538,-2.322071 3.99661,-4.903831 7.01758,-6.011879 z"
     id="path74" />
  <path
     style="fill:#5c6971;stroke:#5c6971"
     d="m 514.48695,45.541146 c 2.59425,-1.036888 5.40275,-0.08561 8.01905,0.399838 -0.5926,1.984958 -1.1945,3.96709 -1.79926,5.948383 -2.30594,-0.361694 -4.74484,-1.557243 -6.86394,-0.05545 -2.9749,2.01101 -6.1478,5.29386 -5.80714,9.18034 -0.0151,9.9289 0.0433,19.866726 0.009,29.79912 -2.1661,-0.0056 -4.3321,-0.01089 -6.4981,-0.0164 -0.007,-14.912774 0.005,-29.825563 -0.007,-44.738332 2.0983,-0.0034 4.1965,-0.0056 6.29475,-0.0072 -0.0313,1.731312 -0.0666,3.462536 -0.10565,5.193669 2.01165,-2.116608 3.9265,-4.659932 6.75805,-5.703999 z"
     id="path76" />
  <path
     id="path78"
     style="fill:#5c6971;stroke:#5c6971"
     d="M 544.04492 45.003906 C 539.00232 44.982448 534.85663 46.889312 530.37109 48.902344 C 530.99619 50.627377 531.62203 52.350776 532.24609 54.076172 C 535.56563 52.471538 539.33506 50.441056 543.03906 50.091797 C 546.26201 49.810456 549.50739 51.110781 551.20898 53.947266 C 552.91332 56.557503 552.72524 59.966145 552.96094 62.96875 C 544.75611 64.864195 536.3811 65.846111 530.2168 72.244141 C 525.37763 77.017701 526.70983 86.213009 532.46289 89.664062 C 536.94499 92.440719 543.31116 92.714568 547.81445 89.835938 C 549.9475 88.540938 551.57716 86.870375 553.38086 85.171875 C 553.33586 87.047035 553.29922 88.923442 553.26562 90.798828 C 555.19208 90.803908 557.11847 90.808 559.04492 90.8125 C 559.06472 81.22456 559.02194 71.636657 559.08594 62.048828 C 559.04654 57.911029 559.01236 54.061433 556.54883 50.541016 C 553.66083 46.418226 548.90808 44.916646 544.04492 45.003906 z M 552.78516 67.757812 C 552.67509 71.493407 553.29251 75.673091 552.31445 79.291016 C 550.23077 84.127441 543.27264 88.591812 538.08789 86.0625 C 533.66534 84.171286 532.2325 78.124543 535.625 74.611328 C 540.07145 69.945969 546.79582 69.052336 552.78516 67.757812 z " />
  <path
     style="fill:none;stroke:#5c6971"
     d="m 552.7847,67.758786 c -5.98934,1.294524 -12.71395,2.18631 -17.1604,6.851669 -3.3925,3.513215 -1.95815,9.561385 2.4644,11.452599 5.18475,2.529312 12.14196,-1.935594 14.22564,-6.772019 0.97806,-3.617925 0.36029,-7.796655 0.47036,-11.532249 z"
     id="path80" />
  <path
     style="fill:#5c6971;stroke:#5c6971"
     d="m 599.3813,47.761636 c -0.64417,1.823288 -1.29065,3.645734 -1.93616,5.46854 -3.3482,-1.335308 -8.02774,-3.799732 -11.65381,-2.483886 -4.56079,1.72501 -7.22193,7.276187 -8.09747,11.780665 -0.88616,5.41438 -0.50636,11.260605 1.47357,16.40614 1.48367,3.583455 3.80897,6.717705 7.83972,7.489515 3.91285,0.63708 8.02838,-1.562536 11.46925,-3.17082 0.6627,1.86006 1.32366,3.72071 1.9794,5.58321 -5.7225,2.42252 -11.3786,4.03959 -17.5923,2.32096 -5.46,-1.747745 -9.1184,-6.84121 -10.69296,-12.15658 -2.08284,-7.12722 -2.49994,-15.309285 0.61646,-22.207425 2.10284,-4.789952 5.81274,-9.386837 10.90546,-11.117069 5.54664,-1.63451 10.59271,-0.107896 15.68884,2.08675 z"
     id="path82" />
  <path
     style="fill:#7c868d;stroke:#7c868d"
     d="M 59.562337,90.381505 C 59.53334,94.01912 56.30618,96.56723 54.006505,99.006314 46.434426,106.67799 38.49529,114.06045 31.26458,122.05 c -0.539995,0 -0.539995,0 -1.07999,0 -0.799059,-10.39101 -0.155966,-20.87555 -0.422418,-31.29493 9.936643,-0.38346 19.863981,0.141655 29.800165,-0.373565 z"
     id="path92" />
  <rect
     style="fill:#e2001a;fill-opacity:1"
     id="rect192"
     width="7.540113"
     height="7.5960464"
     x="153.26086"
     y="83.048759" />
  <rect
     style="fill:#e2001a;fill-opacity:1;stroke-width:0.913571"
     id="rect194"
     width="10.894281"
     height="9.8474121"
     x="206.99776"
     y="31.185253" />
  <rect
     style="fill:#e2001a;fill-opacity:1;stroke-width:0.913571"
     id="rect194-3"
     width="10.894281"
     height="9.8474121"
     x="237.94942"
     y="31.128002" />
  <rect
     style="fill:#e2001a;fill-opacity:1;stroke-width:0.913571"
     id="rect194-6"
     width="10.894281"
     height="9.8474121"
     x="237.99043"
     y="81.261185" />
  <rect
     style="fill:#e2001a;fill-opacity:1;stroke-width:0.913571"
     id="rect194-7"
     width="10.894281"
     height="9.8474121"
     x="206.9969"
     y="81.066299" />
</svg>
